<svg version="1.1" xmlns="http://www.w3.org/2000/svg" xmlns:xlink="http://www.w3.org/1999/xlink" x="0px" y="0px"
	 width="200px" height="200px" viewBox="0 0 1142 1024">
<style type="text/css">
	.st0{fill:#000000;}
</style>
<path class="st0" d="M1096.012786 293.779435a82.214598 82.214598 0 0 0 7.63772-15.548215c38.461375-99.563133
    7.364944-209.491742-72.012786-255.590836a191.243047 191.243047 0 0 0-204.854555 17.457645 1058.042408 1058.042408 
    0 0 0-514.727757 0.272775A191.679489 191.679489 0 0 0 106.655301 22.640384C27.277571 68.739478-3.81886 178.668087 
    34.642515 278.23122a88.542994 88.542994 0 0 0 9.274374 18.275972A841.813106 841.813106 0 0 0 0.545551 586.740543c0 
    265.410762 223.948855 437.259457 570.374001 437.259457s570.646777-171.848695 570.646777-437.259457a822.036867 
    822.036867 0 0 0-45.553543-292.961108zM570.919552 969.172083c-238.133191 0-516.091636-100.108684-516.091635-382.43154a771.355141 
    771.355141 0 0 1 45.553543-285.050612l6.819392-17.18487-13.366009-13.093234a31.041875 31.041875 0 0 
    1-8.456047-12.820458c-28.914225-74.740543-7.910495-155.754928 48.554076-188.488013a113.311028 113.311028 
    0 0 1 57.555674-15.002663 160.637613 160.637613 0 0 1 98.472029 37.097496l11.729356 9.274374 
    13.911561-4.637187a788.785509 788.785509 0 0 1 255.31806-33.824188 775.910495 775.910495 0 0 1 252.044753 
    33.551412l14.184336 4.637187 11.45658-9.274374a140.370378 140.370378 0 0 1 156.027704-21.822057c56.191795 
    32.733085 77.195525 113.747469 48.554076 188.488013a38.679595 38.679595 0 0 1-7.910496 11.729356l-12.274907 
    12.820458 6.819393 16.639318a758.316462 758.316462 0 0 1 47.462973 286.960042c0 282.322856-278.23122 
    382.43154-516.364412 382.43154zM168.575386 214.128929l67.648375-39.006926a9.519872 9.519872 0 0 0 
    2.727757-14.184337 48.363133 48.363133 0 1 0-83.742141 48.2813 9.219819 9.219819 0 0 0 13.366009 4.909963z 
    m734.584976-39.006926l67.648375 39.006926a9.54715 9.54715 0 0 0 13.638786-4.909963 54.555141 54.555141 0 0 
    0-17.18487-67.375599 53.927757 53.927757 0 0 0-66.557272 19.094299 9.301652 9.301652 0 0 0 2.454981 14.184337z 
    m-266.229089 559.190197h-125.7496a20.4309 20.4309 0 0 0-14.184337 34.915291l62.738413 62.738412a19.776239 
    19.776239 0 0 0 28.641449 0l63.011188-62.738412a20.512733 20.512733 0 0 0-14.457113-34.915291z 
    m192.034097-360.609483c-88.106553 0-162.301545 5.455514-183.850826 
    68.739478h-144.843899c-21.822056-63.283964-95.744273-68.739478-184.123602-68.739478a190.233777 190.233777 0 0 
    0-190.397443 190.397443c0 105.291422 45.826319 190.397443 151.117742 190.397443 93.562067 0 202.672349-130.386787 
    225.585508-233.496005 5.455514-18.548748 31.641982-31.914758 70.103357-32.460309 38.461375 0.545551 64.647842 
    13.638785 70.103356 32.460309h0.272776c22.640384 102.836441 131.750666 233.223229 225.585509 233.223229 105.291422 
    0 151.117741-84.833245 151.117741-190.124667a190.288332 190.288332 0 0 0-190.670219-190.397443z m-450.898242 
    157.391582l-97.108151 152.48162a2.727757 2.727757 0 0 1-4.909963-1.90943l18.275973-96.5626a3.873415 3.873415 0 0 
    0-3.81886-4.364411H237.860416a3.846137 3.846137 0 0 1-3.000533-6.001066l96.835375-152.208844a2.727757 2.727757 
    0 0 1 4.909963 1.90943l-18.275972 96.289825a3.955248 3.955248 0 0 0 3.81886 4.637187h52.645711a3.846137 3.846137 
    0 0 1 3.273308 5.728289z m535.458711 0l-97.108151 152.48162a2.727757 2.727757 0 0 
    1-4.909963-1.90943l18.275972-96.5626a3.873415 3.873415 0 0 0-3.818859-4.364411h-52.645712a3.846137 3.846137 
    0 0 1-3.000532-6.001066l96.835375-152.208844a2.727757 2.727757 0 0 1 4.909963 1.90943l-18.275972 96.289825a3.955248 
    3.955248 0 0 0 3.818859 4.637187h52.645712a3.737027 3.737027 0 0 1 3.273308 5.728289z"/>
</svg>
