<?xml version="1.0" standalone="no"?>
<!DOCTYPE svg PUBLIC "-//W3C//DTD SVG 20010904//EN"
 "http://www.w3.org/TR/2001/REC-SVG-20010904/DTD/svg10.dtd">
<svg version="1.0" xmlns="http://www.w3.org/2000/svg"
 width="223.000000pt" height="223.000000pt" viewBox="0 0 223.000000 223.000000"
 preserveAspectRatio="xMidYMid meet">
<metadata>
Created by potrace 1.11, written by Peter Selinger 2001-2013
</metadata>
<g transform="translate(0.000000,223.000000) scale(0.100000,-0.100000)"
fill="#000000" stroke="none">
<path d="M303 2110 c-159 -32 -265 -178 -265 -365 0 -65 20 -161 41 -194 6 -9
2 -33 -9 -67 -19 -55 -45 -173 -57 -264 -15 -106 -8 -369 11 -445 58 -225 214
-408 441 -519 125 -62 231 -93 415 -122 59 -10 356 -11 446 -2 419 43 749 261
855 565 38 109 48 189 44 353 -4 143 -7 181 -19 243 -19 94 -28 130 -45 185
-19 63 -19 63 0 120 30 85 32 195 5 275 -56 165 -175 250 -344 243 -59 -3 -86
-10 -142 -38 l-70 -34 -85 17 c-196 40 -416 52 -598 35 -56 -6 -229 -35 -297
-50 -8 -2 -35 7 -60 21 -86 47 -174 61 -267 43z m147 -110 c20 -5 60 -25 89
-43 52 -34 55 -34 98 -21 143 43 268 58 478 58 207 1 275 -7 432 -48 l88 -22
47 33 c49 36 65 41 140 50 59 7 148 -20 181 -56 14 -14 35 -45 47 -69 43 -82
36 -238 -12 -289 l-20 -22 26 -78 c90 -275 104 -583 35 -769 -41 -108 -120
-209 -231 -292 -102 -78 -305 -157 -462 -181 -33 -6 -79 -12 -101 -16 -22 -3
-89 -6 -150 -6 -590 -3 -986 258 -1024 674 -6 72 3 296 14 352 26 125 37 169
58 235 l25 75 -23 27 c-63 75 -51 263 23 346 54 61 154 87 242 62z"/>
<path d="M359 1851 c-58 -23 -88 -93 -56 -135 13 -18 17 -18 90 23 43 23 77
49 77 56 0 17 -59 63 -80 62 -9 0 -23 -3 -31 -6z"/>
<path d="M1779 1822 l-32 -29 29 -20 c16 -11 53 -33 82 -49 58 -32 72 -27 72
29 0 90 -84 128 -151 69z"/>
<path d="M516 1374 c-28 -7 -75 -30 -105 -51 -106 -73 -162 -180 -163 -313 -2
-218 110 -361 283 -361 101 -1 207 61 303 177 60 72 114 169 140 251 14 41 24
54 50 67 65 31 167 25 208 -11 9 -8 26 -43 38 -77 78 -234 299 -428 464 -405
131 17 215 103 245 251 45 217 -62 414 -259 472 -70 21 -274 16 -341 -8 -47
-17 -104 -64 -114 -94 -4 -15 -22 -17 -145 -17 l-140 0 -19 31 c-27 45 -70 72
-140 88 -76 18 -239 18 -305 0z m1174 -146 c-6 -29 -14 -72 -17 -94 l-5 -42
51 3 c28 1 54 -1 57 -7 3 -5 -22 -53 -57 -106 -34 -53 -77 -121 -96 -151 -38
-63 -41 -53 -18 66 8 43 15 80 15 83 0 4 -24 5 -52 5 -29 -1 -56 0 -60 2 -7 4
27 61 139 236 26 41 49 71 51 66 2 -5 -1 -33 -8 -61z m-1040 20 c-5 -17 -12
-47 -15 -67 -3 -20 -7 -47 -10 -59 -4 -24 -4 -24 65 -26 32 -1 44 -5 42 -15
-4 -20 -187 -302 -190 -293 -1 4 6 49 16 100 10 51 16 93 13 93 -3 1 -27 2
-53 3 -25 0 -49 4 -53 7 -3 4 20 46 51 95 31 49 72 115 92 146 39 61 56 68 42
16z"/>
<path d="M974 672 c-8 -7 -14 -21 -14 -29 0 -20 134 -154 158 -158 24 -4 162
133 162 162 0 12 -5 25 -12 29 -7 4 -73 8 -146 9 -102 1 -138 -2 -148 -13z"/>
</g>
</svg>
